<svg width="27" height="27" viewBox="0 0 27 27" fill="none" xmlns="http://www.w3.org/2000/svg">
<path d="M14.3438 3.375V6.75C14.3438 6.97378 14.2549 7.18839 14.0966 7.34662C13.9384 7.50486 13.7238 7.59375 13.5 7.59375C13.2762 7.59375 13.0616 7.50486 12.9034 7.34662C12.7451 7.18839 12.6562 6.97378 12.6562 6.75V3.375C12.6562 3.15122 12.7451 2.93661 12.9034 2.77838C13.0616 2.62014 13.2762 2.53125 13.5 2.53125C13.7238 2.53125 13.9384 2.62014 14.0966 2.77838C14.2549 2.93661 14.3438 3.15122 14.3438 3.375ZM18.2725 9.57129C18.3834 9.57124 18.4932 9.54932 18.5956 9.50679C18.698 9.46426 18.7911 9.40196 18.8694 9.32344L21.2562 6.93773C21.4145 6.77941 21.5034 6.56468 21.5034 6.34078C21.5034 6.11688 21.4145 5.90215 21.2562 5.74383C21.0978 5.58551 20.8831 5.49656 20.6592 5.49656C20.4353 5.49656 20.2206 5.58551 20.0623 5.74383L17.6766 8.13059C17.5585 8.24853 17.478 8.39883 17.4454 8.56249C17.4128 8.72615 17.4294 8.89582 17.4932 9.05003C17.5569 9.20425 17.665 9.33608 17.8037 9.42886C17.9425 9.52165 18.1056 9.57121 18.2725 9.57129ZM23.625 12.6562H20.25C20.0262 12.6562 19.8116 12.7451 19.6534 12.9034C19.4951 13.0616 19.4062 13.2762 19.4062 13.5C19.4062 13.7238 19.4951 13.9384 19.6534 14.0966C19.8116 14.2549 20.0262 14.3438 20.25 14.3438H23.625C23.8488 14.3438 24.0634 14.2549 24.2216 14.0966C24.3799 13.9384 24.4688 13.7238 24.4688 13.5C24.4688 13.2762 24.3799 13.0616 24.2216 12.9034C24.0634 12.7451 23.8488 12.6562 23.625 12.6562ZM18.8694 17.6766C18.7099 17.525 18.4975 17.4418 18.2775 17.4446C18.0574 17.4474 17.8472 17.5361 17.6916 17.6916C17.5361 17.8472 17.4474 18.0574 17.4446 18.2775C17.4418 18.4975 17.525 18.7099 17.6766 18.8694L20.0623 21.2562C20.2206 21.4145 20.4353 21.5034 20.6592 21.5034C20.8831 21.5034 21.0978 21.4145 21.2562 21.2562C21.4145 21.0978 21.5034 20.8831 21.5034 20.6592C21.5034 20.4353 21.4145 20.2206 21.2562 20.0623L18.8694 17.6766ZM13.5 19.4062C13.2762 19.4062 13.0616 19.4951 12.9034 19.6534C12.7451 19.8116 12.6562 20.0262 12.6562 20.25V23.625C12.6562 23.8488 12.7451 24.0634 12.9034 24.2216C13.0616 24.3799 13.2762 24.4688 13.5 24.4688C13.7238 24.4688 13.9384 24.3799 14.0966 24.2216C14.2549 24.0634 14.3438 23.8488 14.3438 23.625V20.25C14.3438 20.0262 14.2549 19.8116 14.0966 19.6534C13.9384 19.4951 13.7238 19.4062 13.5 19.4062ZM8.13059 17.6766L5.74383 20.0623C5.58551 20.2206 5.49656 20.4353 5.49656 20.6592C5.49656 20.8831 5.58551 21.0978 5.74383 21.2562C5.90215 21.4145 6.11688 21.5034 6.34078 21.5034C6.56468 21.5034 6.77941 21.4145 6.93773 21.2562L9.32344 18.8694C9.47499 18.7099 9.55823 18.4975 9.55542 18.2775C9.5526 18.0574 9.46395 17.8472 9.30836 17.6916C9.15277 17.5361 8.94256 17.4474 8.72254 17.4446C8.50252 17.4418 8.29011 17.525 8.13059 17.6766ZM7.59375 13.5C7.59375 13.2762 7.50486 13.0616 7.34662 12.9034C7.18839 12.7451 6.97378 12.6562 6.75 12.6562H3.375C3.15122 12.6562 2.93661 12.7451 2.77838 12.9034C2.62014 13.0616 2.53125 13.2762 2.53125 13.5C2.53125 13.7238 2.62014 13.9384 2.77838 14.0966C2.93661 14.2549 3.15122 14.3438 3.375 14.3438H6.75C6.97378 14.3438 7.18839 14.2549 7.34662 14.0966C7.50486 13.9384 7.59375 13.7238 7.59375 13.5ZM6.93773 5.74383C6.77941 5.58551 6.56468 5.49656 6.34078 5.49656C6.11688 5.49656 5.90215 5.58551 5.74383 5.74383C5.58551 5.90215 5.49656 6.11688 5.49656 6.34078C5.49656 6.45165 5.5184 6.56142 5.56082 6.66385C5.60325 6.76628 5.66544 6.85934 5.74383 6.93773L8.13059 9.32344C8.29011 9.47499 8.50252 9.55823 8.72254 9.55542C8.94256 9.5526 9.15277 9.46395 9.30836 9.30836C9.46395 9.15277 9.5526 8.94256 9.55542 8.72254C9.55823 8.50252 9.47499 8.29011 9.32344 8.13059L6.93773 5.74383Z" fill="black"/>
</svg>
